<svg width="10" height="7" viewBox="0 0 10 7" fill="none" xmlns="http://www.w3.org/2000/svg"><path d="M5.00002 6.46132C4.8889 6.46132 4.78127 6.44049 4.6771 6.39882C4.57293 6.35716 4.47224 6.28771 4.37502 6.19049L0.604182 2.41966C0.437516 2.25299 0.361127 2.04466 0.375016 1.79466C0.388905 1.54466 0.472238 1.34327 0.625016 1.19049C0.805571 1.00993 1.0139 0.923129 1.25002 0.930073C1.48613 0.937018 1.68752 1.02382 1.85418 1.19049L5.00002 4.35716L8.16668 1.19049C8.33335 1.02382 8.53127 0.94049 8.76043 0.94049C8.9896 0.94049 9.19446 1.03077 9.37502 1.21132C9.54168 1.37799 9.62502 1.58285 9.62502 1.82591C9.62502 2.06896 9.54168 2.27382 9.37502 2.44049L5.62502 6.19049C5.52779 6.28771 5.4271 6.35716 5.32293 6.39882C5.21877 6.44049 5.11113 6.46132 5.00002 6.46132Z" fill="#fff"></path></svg>