<svg width="12" height="13" viewBox="0 0 12 13" fill="currentColor" xmlns="http://www.w3.org/2000/svg"><path fill-rule="evenodd" clip-rule="evenodd" d="M0.292893 12.7071C-0.0976311 12.3166 -0.0976311 11.6834 0.292893 11.2929L5.29289 6.29289C5.68342 5.90237 6.31658 5.90237 6.70711 6.29289L11.7071 11.2929C12.0976 11.6834 12.0976 12.3166 11.7071 12.7071C11.3166 13.0976 10.6834 13.0976 10.2929 12.7071L6 8.41421L1.70711 12.7071C1.31658 13.0976 0.683417 13.0976 0.292893 12.7071ZM0.292893 6.70711C-0.097631 6.31658 -0.097631 5.68342 0.292893 5.29289L5.29289 0.292894C5.68342 -0.0976312 6.31658 -0.0976312 6.70711 0.292894L11.7071 5.29289C12.0976 5.68342 12.0976 6.31658 11.7071 6.70711C11.3166 7.09763 10.6834 7.09763 10.2929 6.70711L6 2.41421L1.70711 6.70711C1.31658 7.09763 0.683418 7.09763 0.292893 6.70711Z" fill="currentColor"></path></svg>