<svg width="14" height="16" viewBox="0 0 14 16" fill="none" xmlns="http://www.w3.org/2000/svg"><path fill-rule="evenodd" clip-rule="evenodd" d="M0.999053 5.99951C0.999053 2.6858 3.68534 -0.000488281 6.99905 -0.000488281C10.3128 -0.000488281 12.9991 2.6858 12.9991 5.99951V9.5853L13.7062 10.2924C13.9922 10.5784 14.0777 11.0085 13.9229 11.3822C13.7682 11.7559 13.4035 11.9995 12.9991 11.9995H0.999053C0.59459 11.9995 0.229954 11.7559 0.0751731 11.3822C-0.0796079 11.0085 0.00594792 10.5784 0.291946 10.2924L0.999053 9.5853V5.99951ZM3.99707 13.0002C3.99707 14.6571 5.34022 16.0002 6.99707 16.0002C8.65392 16.0002 9.99707 14.6571 9.99707 13.0002H3.99707Z" fill="white"></path></svg>