<svg width="16" height="16" viewBox="0 0 16 16" fill="#57606a" xmlns="http://www.w3.org/2000/svg"><path d="M9.708 15.562C9.41667 15.854 9.06267 16 8.646 16C8.22933 16 7.875 15.854 7.583 15.562L0.438 8.417C0.298667 8.27767 0.191 8.11433 0.115 7.927C0.0383333 7.73967 0 7.54867 0 7.354V1.5C0 1.08333 0.146 0.729333 0.438 0.438C0.729333 0.146 1.08333 0 1.5 0H7.354C7.54867 0 7.73633 0.0346668 7.917 0.104C8.09767 0.173333 8.26433 0.284667 8.417 0.438L15.562 7.583C15.854 7.875 16 8.22567 16 8.635C16 9.045 15.854 9.396 15.562 9.688L9.708 15.562ZM3.5 4.75C3.84733 4.75 4.14233 4.62833 4.385 4.385C4.62833 4.14233 4.75 3.84733 4.75 3.5C4.75 3.15267 4.62833 2.85767 4.385 2.615C4.14233 2.37167 3.84733 2.25 3.5 2.25C3.15267 2.25 2.85767 2.37167 2.615 2.615C2.37167 2.85767 2.25 3.15267 2.25 3.5C2.25 3.84733 2.37167 4.14233 2.615 4.385C2.85767 4.62833 3.15267 4.75 3.5 4.75Z" fill="#57606a"></path></svg>