<svg width="20" height="20" viewBox="0 0 20 20" fill="none" xmlns="http://www.w3.org/2000/svg"><path d="M9 14H6C4.88867 14 3.94433 13.611 3.167 12.833C2.389 12.0557 2 11.1113 2 10C2 8.88867 2.389 7.94433 3.167 7.167C3.94433 6.389 4.88867 6 6 6H9V7.5H6C5.30533 7.5 4.715 7.743 4.229 8.229C3.743 8.715 3.5 9.30533 3.5 10C3.5 10.6947 3.743 11.285 4.229 11.771C4.715 12.257 5.30533 12.5 6 12.5H9V14ZM7 10.75V9.25H13V10.75H7ZM11 14V12.5H14C14.6947 12.5 15.285 12.257 15.771 11.771C16.257 11.285 16.5 10.6947 16.5 10C16.5 9.30533 16.257 8.715 15.771 8.229C15.285 7.743 14.6947 7.5 14 7.5H11V6H14C15.1113 6 16.0557 6.389 16.833 7.167C17.611 7.94433 18 8.88867 18 10C18 11.1113 17.611 12.0557 16.833 12.833C16.0557 13.611 15.1113 14 14 14H11Z" fill="currentColor"></path></svg>