<svg width="14" height="14" viewBox="0 0 14 14" fill="none" xmlns="http://www.w3.org/2000/svg" role="none"><path d="M6.25 8V0H7.75V8H6.25ZM7 14C6.028 14 5.11833 13.816 4.271 13.448C3.42367 13.08 2.684 12.58 2.052 11.948C1.42 11.316 0.92 10.5763 0.552 9.729C0.184 8.88167 0 7.972 0 7C0 5.94467 0.225667 4.94467 0.677 4C1.12833 3.05533 1.76367 2.24967 2.583 1.583L3.646 2.646C2.96533 3.174 2.43733 3.81633 2.062 4.573C1.68733 5.32967 1.5 6.13867 1.5 7C1.5 8.528 2.03467 9.82667 3.104 10.896C4.17333 11.9653 5.472 12.5 7 12.5C8.528 12.5 9.82667 11.9653 10.896 10.896C11.9653 9.82667 12.5 8.528 12.5 7C12.5 6.13867 12.316 5.32633 11.948 4.563C11.58 3.799 11.0487 3.16 10.354 2.646L11.417 1.583C12.2503 2.24967 12.889 3.05533 13.333 4C13.7777 4.94467 14 5.94467 14 7C14 7.972 13.816 8.88167 13.448 9.729C13.08 10.5763 12.58 11.316 11.948 11.948C11.316 12.58 10.5763 13.08 9.729 13.448C8.88167 13.816 7.972 14 7 14Z" fill="currentColor" role="none"></path></svg>