<svg width="16" height="14" viewBox="0 0 16 14" fill="none" xmlns="http://www.w3.org/2000/svg"><path d="M13.5 5C12.8053 5 12.215 4.757 11.729 4.271C11.243 3.785 11 3.19467 11 2.5C11 1.80533 11.243 1.215 11.729 0.729C12.215 0.243 12.8053 0 13.5 0C14.1947 0 14.785 0.243 15.271 0.729C15.757 1.215 16 1.80533 16 2.5C16 3.19467 15.757 3.785 15.271 4.271C14.785 4.757 14.1947 5 13.5 5ZM1.5 14C1.08333 14 0.729333 13.854 0.438 13.562C0.146 13.2707 0 12.9167 0 12.5V3.5C0 3.08333 0.146 2.72933 0.438 2.438C0.729333 2.146 1.08333 2 1.5 2H9.521C9.493 2.236 9.486 2.479 9.5 2.729C9.514 2.979 9.55567 3.236 9.625 3.5C9.72233 3.87467 9.87867 4.23933 10.094 4.594C10.3093 4.948 10.5767 5.264 10.896 5.542L8 7.229L1.5 3.5V5.271L8 9L12.542 6.375C12.6667 6.403 12.8123 6.43067 12.979 6.458C13.1457 6.486 13.3193 6.5 13.5 6.5C13.9447 6.5 14.3543 6.434 14.729 6.302C15.1043 6.17 15.528 5.94433 16 5.625V12.5C16 12.9027 15.854 13.2533 15.562 13.552C15.2707 13.8507 14.9167 14 14.5 14H1.5Z" fill="rgb(158 0 255)"></path></svg>