<svg width="48" height="48" viewBox="0 0 48 48" fill="none" xmlns="http://www.w3.org/2000/svg"><path d="M9 42C8.2 42 7.5 41.7 6.9 41.1C6.3 40.5 6 39.8 6 39V9C6 8.2 6.3 7.5 6.9 6.9C7.5 6.3 8.2 6 9 6H39C39.8 6 40.5 6.3 41.1 6.9C41.7 7.5 42 8.2 42 9V39C42 39.8 41.7 40.5 41.1 41.1C40.5 41.7 39.8 42 39 42H9ZM9 39H39V32.2H31.7C30.8333 33.5333 29.7083 34.5583 28.325 35.275C26.9417 35.9917 25.5 36.35 24 36.35C22.5 36.35 21.0583 35.9917 19.675 35.275C18.2917 34.5583 17.1667 33.5333 16.3 32.2H9V39ZM24 33.35C25.3667 33.35 26.6 32.9583 27.7 32.175C28.8 31.3917 29.7333 30.4 30.5 29.2H39V9H9V29.2H17.5C18.2667 30.4 19.2 31.3917 20.3 32.175C21.4 32.9583 22.6333 33.35 24 33.35ZM9 39H39H9Z" fill="currentColor"></path></svg>