<svg width="20" height="20" viewBox="0 0 20 20" fill="none" xmlns="http://www.w3.org/2000/svg"><path fill-rule="evenodd" clip-rule="evenodd" d="M10.9 3.99863V3.09863H9.09998V3.99863V6.09863H10.9V3.99863ZM10.9 13.8986H9.09998V15.9986V16.8986H10.9V15.9986V13.8986Z" fill="#9e00ff"></path><path fill-rule="evenodd" clip-rule="evenodd" d="M3.99998 9.09844H3.09998L3.09998 10.8984H3.99998L6.09998 10.8984V9.09844H3.99998ZM13.9 9.09844V10.8984H16H16.9V9.09844H16H13.9Z" fill="#9e00ff"></path><path fill-rule="evenodd" clip-rule="evenodd" d="M5.12148 13.6047L4.48508 14.2411L5.75787 15.5139L6.39427 14.8775L7.87919 13.3926L6.6064 12.1198L5.12148 13.6047ZM12.1218 6.60437L13.3946 7.87716L14.8796 6.39224L15.5159 5.75584L14.2432 4.48305L13.6068 5.11945L12.1218 6.60437Z" fill="#9e00ff"></path><path fill-rule="evenodd" clip-rule="evenodd" d="M6.39442 5.11971L5.75802 4.48331L4.48523 5.7561L5.12163 6.3925L6.60655 7.87742L7.87934 6.60463L6.39442 5.11971ZM13.3948 12.1201L12.122 13.3929L13.6069 14.8778L14.2433 15.5142L15.5161 14.2414L14.8797 13.605L13.3948 12.1201Z" fill="#9e00ff"></path></svg>