<svg width="192" height="37" viewBox="0 0 192 37" fill="none" xmlns="http://www.w3.org/2000/svg">
<g clip-path="url(#clip0)">
<path d="M20.1991 0H16.188V7.16683H20.1991V0Z" fill="#FFFFFF"/>
<path d="M20.1991 29.4042H16.188V36.5714H20.1991V29.4042Z" fill="#FFFFFF"/>
<path d="M24.5976 8.9986L29.64 3.93066L32.4763 6.78128L27.4339 11.8492L24.5976 8.9986Z" fill="#FFFFFF"/>
<path d="M8.9528 24.7223L3.9104 29.7902L6.74665 32.6409L11.789 27.5729L8.9528 24.7223Z" fill="#FFFFFF"/>
<path d="M3.91052 6.78103L6.74677 3.93042L11.7892 8.99836L8.95292 11.849L3.91052 6.78103Z" fill="#FFFFFF"/>
<path d="M27.4338 24.7226L24.5975 27.5732L29.6399 32.6411L32.4762 29.7905L27.4338 24.7226Z" fill="#FFFFFF"/>
<path d="M29.256 16.27H36.3871V20.3014H29.256V16.27Z" fill="#FFFFFF"/>
<path d="M7.1311 16.27H0V20.3014H7.1311V16.27Z" fill="#FFFFFF"/>
<path d="M158.19 11.8123C155.684 11.8123 153.708 12.8219 152.365 14.7606V5.61499H148.465V30.4178H152.365V23.3716C152.365 18.0119 154.077 15.2947 157.452 15.2947C159.224 15.2947 160.864 15.7877 160.864 19.3635V30.4178H164.764V19.0604C164.764 16.6724 164.253 14.9224 163.202 13.7109C162.11 12.4511 160.424 11.8123 158.19 11.8123Z" fill="#FFFFFF"/>
<path d="M138.228 8.61268H140.737L140.737 12.3515H146.266V15.699H140.737V27.0027H146.065V30.4178H141.501C139.734 30.4178 138.566 30.0521 137.825 29.2666C137.141 28.5422 136.836 27.4929 136.836 25.8643V15.699H133.653V13.0896L137.193 12.2177L138.228 8.61268Z" fill="#FFFFFF"/>
<path d="M57.7746 19.6324L54.2233 19.1274C52.2813 18.8484 52.0324 17.973 52.0324 17.2416C52.0324 15.7931 53.1801 15.059 55.4438 15.059C58.6208 15.059 59.2618 16.8008 59.3609 17.8392L59.4139 18.3932H63.2651L63.2237 17.7411C62.9903 14.063 60.0348 11.7784 55.5108 11.7784C51.0004 11.7784 48.1986 13.949 48.1986 17.4435C48.1986 20.3128 50.004 22.1433 53.2777 22.597L57.1672 23.1701C59.3872 23.4887 59.6934 24.4104 59.6934 25.3589C59.6934 26.5047 59.2761 27.6765 56.1813 27.6765C52.229 27.6765 51.5942 25.6503 51.4602 24.1264L51.4111 23.5673H47.7515L47.7635 24.1917C47.8018 26.216 48.5125 27.8952 49.8182 29.0483C51.2516 30.3143 53.3702 30.9567 56.1147 30.9567C62.2691 30.9567 63.5609 27.8391 63.5609 25.2243C63.5601 21.9959 61.7229 20.2191 57.7746 19.6324Z" fill="#FFFFFF"/>
<path d="M87.1788 11.8123C84.3782 11.8123 82.3254 12.9806 81.0569 15.2905C80.1662 12.9802 78.276 11.8123 75.4161 11.8123C73.0269 11.8123 71.1894 12.7137 69.9267 14.4987V12.3511H66.0263V30.4174H69.9267V23.3716C69.9267 19.9043 70.409 15.2947 74.5784 15.2947C76.2635 15.2947 77.8227 15.7752 77.8227 19.2627V30.4178H81.6561V23.3716C81.6561 16.132 84.3302 15.2947 86.3411 15.2947C89.0059 15.2947 89.5517 16.8809 89.5517 19.2627V30.4178H93.4521V18.9593C93.4521 15.699 92.364 11.8123 87.1788 11.8123Z" fill="#FFFFFF"/>
<path fill-rule="evenodd" clip-rule="evenodd" d="M97.7334 14.6014C99.3298 12.7768 101.683 11.8123 104.538 11.8123C107.376 11.8123 109.719 12.7814 111.314 14.6155C112.783 16.3036 113.559 18.6329 113.559 21.3508C113.559 24.0987 112.783 26.4475 111.315 28.1442C109.723 29.984 107.379 30.9567 104.538 30.9567C98.9524 30.9567 95.4828 27.2758 95.4828 21.3508C95.4828 18.6185 96.2613 16.2845 97.7334 14.6014ZM99.4169 21.3843C99.4169 25.6425 100.996 27.5415 104.538 27.5415C108.056 27.5415 109.625 25.6425 109.625 21.3843C109.625 17.0685 108.104 15.227 104.538 15.227C102.154 15.227 99.4169 15.927 99.4169 21.3843Z" fill="#FFFFFF"/>
<path fill-rule="evenodd" clip-rule="evenodd" d="M124.209 11.8123C121.354 11.8123 119.001 12.7768 117.405 14.6014C115.933 16.2845 115.154 18.6185 115.154 21.3508C115.154 27.2758 118.624 30.9567 124.209 30.9567C127.05 30.9567 129.394 29.984 130.986 28.1442C132.454 26.4475 133.23 24.0987 133.23 21.3508C133.23 18.6329 132.453 16.3036 130.985 14.6155C129.39 12.7814 127.047 11.8123 124.209 11.8123ZM124.209 27.5415C120.668 27.5415 119.088 25.6425 119.088 21.3843C119.088 15.927 121.825 15.227 124.209 15.227C127.775 15.227 129.296 17.0685 129.296 21.3843C129.296 25.6425 127.728 27.5415 124.209 27.5415Z" fill="#FFFFFF"/>
<path d="M168.002 12.3511H171.903V30.4174H168.002V12.3511Z" fill="#FFFFFF"/>
<path d="M172.305 5.61499H167.633V9.63629H172.305V5.61499Z" fill="#FFFFFF"/>
<path fill-rule="evenodd" clip-rule="evenodd" d="M188.26 24.4757L188.371 24.005L191.994 24.0046L191.904 24.6975C191.711 26.1658 190.534 30.9563 183.457 30.9563C177.871 30.9563 174.536 27.3653 174.536 21.3504C174.536 18.6212 175.303 16.2884 176.755 14.6046C178.329 12.7775 180.647 11.8119 183.457 11.8119C188.612 11.8119 191.942 15.3445 191.942 20.8116C191.942 21.2547 191.942 21.6372 191.867 22.0912L191.782 22.6032H178.447C178.87 27.1342 181.543 27.6761 183.558 27.6761C186.212 27.6761 187.75 26.6292 188.26 24.4757ZM183.491 15.0924C180.591 15.0924 179.007 16.4518 178.551 19.3569H188.068C187.788 16.4892 186.286 15.0924 183.491 15.0924Z" fill="#FFFFFF"/>
</g>
<defs>
<clipPath id="clip0">
<rect width="192" height="36.5714" fill="white"/>
</clipPath>
</defs>
</svg>
