<svg width="20" height="18" viewBox="0 0 20 18" fill="none" xmlns="http://www.w3.org/2000/svg"><path d="M8.70383 1.22538C9.28243 0.231984 10.7176 0.231982 11.2962 1.22538L13.2234 4.53427C13.4354 4.89817 13.7905 5.15621 14.2021 5.24534L17.9446 6.05576C19.0682 6.29907 19.5117 7.66396 18.7457 8.52122L16.1943 11.3767C15.9137 11.6907 15.7781 12.1082 15.8205 12.5272L16.2062 16.3369C16.322 17.4807 15.161 18.3243 14.109 17.8607L10.6049 16.3165C10.2195 16.1467 9.7805 16.1467 9.39513 16.3165L5.89103 17.8607C4.83903 18.3243 3.67798 17.4807 3.79379 16.3369L4.17952 12.5272C4.22194 12.1082 4.08628 11.6907 3.80569 11.3767L1.25431 8.52122C0.488325 7.66396 0.931803 6.29907 2.05538 6.05577L5.79787 5.24534C6.20946 5.15621 6.56463 4.89817 6.77658 4.53427L8.70383 1.22538Z" fill="#ffa800"></path><defs><linearGradient id="halfFill" x1="0" y1="10" x2="20" y2="10" gradientUnits="userSpaceOnUse"><stop stop-color="#FFA800"></stop><stop offset="0.500163" stop-color="#FFA800"></stop><stop offset="0.503906" stop-color="#D7DDE3"></stop><stop offset="1" stop-color="#D7DDE3"></stop></linearGradient></defs></svg>