<svg width="16" height="14" viewBox="0 0 16 14" fill="rgb(29,161,242)" xmlns="http://www.w3.org/2000/svg"><path d="M5.21549 13.0943C10.8735 13.0943 13.9695 8.40234 13.9695 4.34034C13.9695 4.20834 13.9695 4.07634 13.9635 3.94434C14.5635 3.51234 15.0855 2.96634 15.4995 2.34834C14.9475 2.59434 14.3535 2.75634 13.7295 2.83434C14.3655 2.45634 14.8515 1.85034 15.0855 1.13034C14.4915 1.48434 13.8315 1.73634 13.1295 1.87434C12.5655 1.27434 11.7675 0.902344 10.8855 0.902344C9.18749 0.902344 7.80749 2.28234 7.80749 3.98034C7.80749 4.22034 7.83749 4.45434 7.88549 4.68234C5.32949 4.55634 3.06149 3.32634 1.54349 1.46634C1.27949 1.92234 1.12949 2.45034 1.12949 3.01434C1.12949 4.08234 1.67549 5.02434 2.49749 5.57634C1.99349 5.55834 1.51949 5.42034 1.10549 5.19234C1.10549 5.20434 1.10549 5.21634 1.10549 5.23434C1.10549 6.72234 2.16749 7.97034 3.57149 8.25234C3.31349 8.32434 3.04349 8.36034 2.76149 8.36034C2.56349 8.36034 2.37149 8.34234 2.18549 8.30634C2.57549 9.53034 3.71549 10.4183 5.05949 10.4423C4.00349 11.2703 2.67749 11.7623 1.23749 11.7623C0.991493 11.7623 0.745493 11.7503 0.505493 11.7203C1.86149 12.5843 3.48149 13.0943 5.21549 13.0943Z" fill="rgb(29,161,242)"></path></svg>