<svg width="20" height="20" viewBox="0 0 20 20" fill="none" xmlns="http://www.w3.org/2000/svg"><path d="M10 20C15.5228 20 20 15.5228 20 10C20 4.47715 15.5228 0 10 0C4.47715 0 0 4.47715 0 10C0 15.5228 4.47715 20 10 20Z" fill="#1da1f2"></path><path d="M8.16999 15.2751C12.605 15.2751 15.03 11.6001 15.03 8.4151C15.03 8.3101 15.03 8.2051 15.025 8.1051C15.495 7.7651 15.905 7.3401 16.23 6.8551C15.8 7.0451 15.335 7.1751 14.845 7.2351C15.345 6.9351 15.725 6.4651 15.905 5.9001C15.44 6.1751 14.925 6.3751 14.375 6.4851C13.935 6.0151 13.31 5.7251 12.615 5.7251C11.285 5.7251 10.205 6.8051 10.205 8.1351C10.205 8.3251 10.225 8.5101 10.27 8.6851C8.26499 8.5851 6.48999 7.6251 5.29999 6.1651C5.09499 6.5201 4.97499 6.9351 4.97499 7.3751C4.97499 8.2101 5.39999 8.9501 6.04999 9.3801C5.65499 9.3701 5.28499 9.2601 4.95999 9.0801C4.95999 9.0901 4.95999 9.1001 4.95999 9.1101C4.95999 10.2801 5.78999 11.2501 6.89499 11.4751C6.69499 11.5301 6.47999 11.5601 6.25999 11.5601C6.10499 11.5601 5.95499 11.5451 5.80499 11.5151C6.10999 12.4751 6.99999 13.1701 8.05499 13.1901C7.22999 13.8351 6.18999 14.2201 5.05999 14.2201C4.86499 14.2201 4.67499 14.2101 4.48499 14.1851C5.53999 14.8751 6.80999 15.2751 8.16999 15.2751Z" fill="white"></path></svg>